<svg width="800" height="744" viewBox="0 0 800 744" fill="none" xmlns="http://www.w3.org/2000/svg">
<path d="M590.333 243C586.057 238.715 580.696 235.676 574.823 234.208C568.951 232.74 562.789 232.898 557 234.667C551.299 236.283 546.132 239.389 542.03 243.666C537.929 247.943 535.042 253.236 533.667 259C530.447 272.193 525.398 284.872 518.667 296.667C507.086 250.117 486.395 206.323 457.787 167.818C429.18 129.313 393.225 96.8593 352 72.3334C346.983 68.9422 341.137 66.9818 335.09 66.6628C329.042 66.3437 323.022 67.678 317.676 70.5224C312.33 73.3668 307.86 77.6137 304.746 82.8072C301.631 88.0007 299.991 93.9444 300 100C300.277 133.876 293.279 167.417 279.477 198.355C265.676 229.294 245.393 256.909 220 279.333C179.333 323.667 133.333 374 133.333 466.667C133.333 633.333 233.333 733.333 400 733.333C566.667 733.333 666.667 636.333 666.667 466.667C666.667 400 633.333 286 590.333 243Z" fill="#FF6159"/>
</svg>
